<svg width="64" height="64" viewBox="0 0 64 64" fill="none" xmlns="http://www.w3.org/2000/svg">
  <defs>
    <linearGradient id="g" x1="10" y1="8" x2="54" y2="56" gradientUnits="userSpaceOnUse">
      <stop stop-color="#14B8A6"/>
      <stop offset="1" stop-color="#2563EB"/>
    </linearGradient>
  </defs>
  <rect x="6" y="6" width="52" height="52" rx="18" fill="#0F172A"/>
  <rect x="9" y="9" width="46" height="46" rx="15" fill="url(#g)"/>
  <path d="M21 21.5H42.5C46.09 21.5 49 24.41 49 28V35.5C49 42.96 42.96 49 35.5 49H21V21.5Z" fill="white" fill-opacity="0.18"/>
  <path d="M19 18H34.5C42.51 18 49 24.49 49 32.5C49 40.51 42.51 47 34.5 47H19V18Z" fill="#0F172A" fill-opacity="0.78"/>
  <path d="M27 25H36.5C40.64 25 44 28.36 44 32.5C44 36.64 40.64 40 36.5 40H27V25Z" fill="#F8FAFC"/>
  <path d="M27 29H39" stroke="#14B8A6" stroke-width="2.8" stroke-linecap="round"/>
  <path d="M27 35H35.5" stroke="#2563EB" stroke-width="2.8" stroke-linecap="round"/>
  <circle cx="21.5" cy="25.5" r="3.5" fill="#F8FAFC"/>
  <circle cx="21.5" cy="39.5" r="3.5" fill="#0F172A" stroke="#F8FAFC" stroke-width="2"/>
</svg>
